# xmcd CD database file
#
# Track frame offsets:
#	150
#	16489
#	34436
#	49776
#	71693
#	90325
#	111749
#	132222
#	146508
#	163350
#	183091
#	206845
#	228845
#	254700
#	278570
#
# Disc length: 4128 seconds
#
# Revision: 2
# Processed by: cddbd v1.5.2PL0 Copyright (c) Steve Scherf et al.
# Submitted via: CDex 1.51
#
DISCID=e0101e0f
DTITLE=OMEGA - Y SU MAMBO VIOLENTO
DYEAR=2006
DGENRE=Merengue
TTITLE0=SON TAN SOLO
TTITLE1=ME ENGAn~ASTE
TTITLE2=MAMBOTEO
TTITLE3=LA GOMA Y GORRITO
TTITLE4=EL MAMBO DEL DRINK
TTITLE5=DOLARES Y CACHO
TTITLE6=LA MACATE
TTITLE7=EL RABO DEL LECHON
TTITLE8=NOCHE DE TRAVESURA
TTITLE9=SON TAN SOLO,MAMBOTEO,EL MAMBO DEL DRINK
TTITLE10=ALANTE ALANTE
TTITLE11=MOTO CONCHO
TTITLE12=PALETA
TTITLE13=POR TELEFONO
TTITLE14=PA' PERREAR
EXTD=YEAR: 2006
EXTT0=
EXTT1=
EXTT2=
EXTT3=
EXTT4=
EXTT5=
EXTT6=
EXTT7=
EXTT8=
EXTT9=
EXTT10=
EXTT11=
EXTT12=
EXTT13=
EXTT14=
PLAYORDER=
